<?xml version="1.0" standalone="no"?>
<!DOCTYPE svg PUBLIC "-//W3C//DTD SVG 20010904//EN"
 "http://www.w3.org/TR/2001/REC-SVG-20010904/DTD/svg10.dtd">
<svg version="1.0" xmlns="http://www.w3.org/2000/svg"
 width="85.000000pt" height="85.000000pt" viewBox="0 0 85.000000 85.000000"
 preserveAspectRatio="xMidYMid meet">
<metadata>
Created by potrace 1.14, written by Peter Selinger 2001-2017
</metadata>
<g transform="translate(0.000000,85.000000) scale(0.100000,-0.100000)"
fill="#000000" stroke="none">
<path d="M328 674 c-143 -134 -142 -133 -123 -154 13 -14 15 -46 13 -186 l-3
-169 -27 -3 c-25 -3 -27 -7 -30 -60 l-3 -57 -77 -3 c-70 -3 -78 -5 -78 -22 0
-20 10 -20 425 -20 l425 0 0 23 c0 20 -4 22 -62 22 l-63 0 -5 55 c-5 51 -7 55
-32 58 l-28 3 0 180 c0 152 2 179 15 179 8 0 15 6 15 12 0 13 -229 248 -242
248 -3 0 -57 -48 -120 -106z m117 26 c9 -14 -74 -100 -96 -100 -30 0 -22 19
29 65 50 47 57 51 67 35z m45 -330 l0 -130 -110 0 -110 0 0 130 0 130 110 0
110 0 0 -130z m-195 -288 c2 -25 -19 -47 -35 -37 -5 3 -10 20 -10 36 0 25 4
30 22 27 14 -2 22 -11 23 -26z m330 -7 c0 -23 -4 -30 -20 -30 -15 0 -21 8 -23
33 -3 30 -1 33 20 30 18 -2 23 -9 23 -33z"/>
</g>
</svg>
